<svg id="Layer_1" data-name="Layer 1" xmlns="http://www.w3.org/2000/svg" xmlns:xlink="http://www.w3.org/1999/xlink" viewBox="0 0 792 612"><defs><style>.cls-1{fill:url(#linear-gradient);}.cls-2{fill:url(#linear-gradient-2);}.cls-3{fill:url(#linear-gradient-3);}.cls-4{fill:url(#linear-gradient-4);}.cls-5{fill:url(#linear-gradient-5);}.cls-6{fill:url(#linear-gradient-6);}.cls-7{fill:url(#linear-gradient-7);}.cls-8{fill:url(#linear-gradient-8);}.cls-9{fill:url(#linear-gradient-9);}.cls-10{fill:url(#linear-gradient-10);}.cls-11{fill:url(#linear-gradient-11);}.cls-12{fill:url(#linear-gradient-12);}.cls-13{fill:url(#linear-gradient-13);}.cls-14{fill:url(#linear-gradient-14);}.cls-15{fill:url(#linear-gradient-15);}.cls-16{fill:url(#linear-gradient-16);}.cls-17{fill:url(#linear-gradient-17);}.cls-18{fill:url(#linear-gradient-18);}.cls-19{fill:url(#linear-gradient-19);}.cls-20{fill:url(#linear-gradient-20);}.cls-21{fill:url(#linear-gradient-21);}.cls-22{fill:url(#linear-gradient-22);}.cls-23,.cls-26,.cls-27{fill:none;}.cls-24{clip-path:url(#clip-path);}.cls-25{clip-path:url(#clip-path-2);}.cls-26{stroke:#fff;opacity:0.2;}.cls-26,.cls-27{stroke-miterlimit:10;}.cls-27{stroke:#2d2d2d;}.cls-28{opacity:0.5;}.cls-29{clip-path:url(#clip-path-3);}.cls-30{clip-path:url(#clip-path-4);}.cls-31{clip-path:url(#clip-path-5);}.cls-32{mask:url(#mask);}.cls-33{fill:url(#linear-gradient-23);}.cls-34{clip-path:url(#clip-path-6);}.cls-35{clip-path:url(#clip-path-7);}.cls-36{clip-path:url(#clip-path-8);}.cls-37{clip-path:url(#clip-path-9);}.cls-38{clip-path:url(#clip-path-10);}.cls-39{fill:url(#linear-gradient-24);}.cls-40{clip-path:url(#clip-path-11);}.cls-41{clip-path:url(#clip-path-12);}.cls-42{clip-path:url(#clip-path-13);}.cls-43{mask:url(#mask-2);}.cls-44{fill:url(#linear-gradient-25);}.cls-45{clip-path:url(#clip-path-14);}.cls-46{mask:url(#mask-3);}.cls-47{fill:url(#linear-gradient-26);}.cls-48{clip-path:url(#clip-path-15);}.cls-49{mask:url(#mask-4);}.cls-50{fill:url(#linear-gradient-27);}.cls-51{clip-path:url(#clip-path-16);}.cls-52{mask:url(#mask-5);}.cls-53{fill:url(#linear-gradient-28);}.cls-54{clip-path:url(#clip-path-17);}.cls-55{mask:url(#mask-6);}.cls-56{fill:url(#linear-gradient-29);}.cls-57{clip-path:url(#clip-path-18);}.cls-58{mask:url(#mask-7);}.cls-59{fill:url(#linear-gradient-30);}.cls-60{clip-path:url(#clip-path-19);}.cls-61{mask:url(#mask-8);}.cls-62{fill:url(#linear-gradient-31);}.cls-63{clip-path:url(#clip-path-20);}.cls-64{mask:url(#mask-9);}.cls-65{fill:url(#linear-gradient-32);}.cls-66{clip-path:url(#clip-path-21);}.cls-67{mask:url(#mask-10);}.cls-68{fill:url(#linear-gradient-33);}.cls-69{clip-path:url(#clip-path-22);}.cls-70{mask:url(#mask-11);}.cls-71{fill:url(#linear-gradient-34);}.cls-72{clip-path:url(#clip-path-23);}.cls-73{mask:url(#mask-12);}.cls-74{fill:url(#linear-gradient-35);}.cls-75{clip-path:url(#clip-path-24);}.cls-76{mask:url(#mask-13);}.cls-77{fill:url(#linear-gradient-36);}.cls-78{clip-path:url(#clip-path-25);}.cls-79{clip-path:url(#clip-path-26);}.cls-80{mask:url(#mask-14);}.cls-81{fill:url(#linear-gradient-37);}.cls-82{clip-path:url(#clip-path-27);}.cls-83{mask:url(#mask-15);}.cls-84{fill:url(#linear-gradient-38);}.cls-85{clip-path:url(#clip-path-28);}.cls-86{mask:url(#mask-16);}.cls-87{fill:url(#linear-gradient-39);}.cls-88{clip-path:url(#clip-path-29);}.cls-89{mask:url(#mask-17);}.cls-90{fill:url(#linear-gradient-40);}.cls-91{clip-path:url(#clip-path-30);}.cls-92{mask:url(#mask-18);}.cls-93{fill:url(#linear-gradient-41);}.cls-94{clip-path:url(#clip-path-31);}.cls-95{mask:url(#mask-19);}.cls-96{fill:url(#linear-gradient-42);}.cls-97{clip-path:url(#clip-path-32);}.cls-98{mask:url(#mask-20);}.cls-99{fill:url(#linear-gradient-43);}.cls-100{clip-path:url(#clip-path-33);}.cls-101{mask:url(#mask-21);}.cls-102{fill:url(#linear-gradient-44);}.cls-103{clip-path:url(#clip-path-34);}.cls-104{mask:url(#mask-22);}.cls-105{fill:url(#linear-gradient-45);}.cls-106{clip-path:url(#clip-path-35);}.cls-107{clip-path:url(#clip-path-36);}.cls-108{clip-path:url(#clip-path-37);}.cls-109{clip-path:url(#clip-path-38);}.cls-110{clip-path:url(#clip-path-39);}</style><linearGradient id="linear-gradient" x1="-925.28" y1="-1676.9" x2="-923.86" y2="-1676.9" gradientTransform="matrix(-70.52, 152.11, 152.11, 70.52, 190003.07, 259699.82)" gradientUnits="userSpaceOnUse"><stop offset="0" stop-color="#fff"/><stop offset="0.07" stop-color="#d8d8d8"/><stop offset="0.16" stop-color="#a6a6a6"/><stop offset="0.26" stop-color="#797979"/><stop offset="0.37" stop-color="#545454"/><stop offset="0.47" stop-color="#353535"/><stop offset="0.58" stop-color="#1e1e1e"/><stop offset="0.7" stop-color="#0d0d0d"/><stop offset="0.83" stop-color="#030303"/><stop offset="1"/></linearGradient><linearGradient id="linear-gradient-2" x1="-926" y1="-1675.52" x2="-924.7" y2="-1675.52" gradientTransform="matrix(-139.67, 0.07, 0.07, 139.67, -128381.44, 234553.31)" xlink:href="#linear-gradient"/><linearGradient id="linear-gradient-3" x1="-909.21" y1="-1656.85" x2="-907.92" y2="-1656.85" gradientTransform="matrix(-62.67, 0.03, 0.03, 62.67, -56184.5, 104262.88)" xlink:href="#linear-gradient"/><linearGradient id="linear-gradient-4" x1="-929.21" y1="-1678.77" x2="-927.91" y2="-1678.77" gradientTransform="matrix(-180.67, 0.09, 0.09, 180.67, -166896.71, 303781.49)" xlink:href="#linear-gradient"/><linearGradient id="linear-gradient-5" x1="-924.11" y1="-1673.91" x2="-922.81" y2="-1673.91" gradientTransform="matrix(-124.47, 0.06, 0.06, 124.47, -114337.87, 208903.84)" xlink:href="#linear-gradient"/><linearGradient id="linear-gradient-6" x1="-910.22" y1="-1658.31" x2="-908.8" y2="-1658.31" gradientTransform="matrix(-62, 0.03, 0.03, 62, -56142.53, 103097.47)" xlink:href="#linear-gradient"/><linearGradient id="linear-gradient-7" x1="-916.06" y1="-1663.72" x2="-914.64" y2="-1663.72" gradientTransform="matrix(-75.33, 0.04, 0.04, 75.33, -68570.13, 125502.19)" xlink:href="#linear-gradient"/><linearGradient id="linear-gradient-8" x1="-932.64" y1="-1682.76" x2="-931.22" y2="-1682.76" gradientTransform="matrix(-258.67, 0.13, 0.13, 258.67, -240772.44, 435684.51)" xlink:href="#linear-gradient"/><linearGradient id="linear-gradient-9" x1="-915.26" y1="-1663.16" x2="-913.84" y2="-1663.16" gradientTransform="matrix(-73.67, 0.04, 0.04, 73.67, -67027.99, 122749.7)" xlink:href="#linear-gradient"/><linearGradient id="linear-gradient-10" x1="-928.24" y1="-1677.29" x2="-926.82" y2="-1677.29" gradientTransform="matrix(-154.67, 0.08, 0.08, 154.67, -142970.02, 259665.49)" xlink:href="#linear-gradient"/><linearGradient id="linear-gradient-11" x1="-916.67" y1="-1664.36" x2="-915.25" y2="-1664.36" gradientTransform="matrix(-77, 0.04, 0.04, 77, -70212.34, 128276.47)" xlink:href="#linear-gradient"/><linearGradient id="linear-gradient-12" x1="-922.86" y1="-1672.26" x2="-921.44" y2="-1672.26" gradientTransform="matrix(-108.33, 0.05, 0.05, 108.33, -99738.99, 181405.66)" xlink:href="#linear-gradient"/><linearGradient id="linear-gradient-13" x1="-918.25" y1="-1667.36" x2="-916.95" y2="-1667.36" gradientTransform="matrix(-91, 0.05, 0.05, 91, -82793.85, 152366.14)" xlink:href="#linear-gradient"/><linearGradient id="linear-gradient-14" x1="-916.2" y1="-1665.13" x2="-914.78" y2="-1665.13" gradientTransform="matrix(-77, 0.04, 0.04, 77, -70352.34, 128370.37)" xlink:href="#linear-gradient"/><linearGradient id="linear-gradient-15" x1="-929.08" y1="-1678.67" x2="-927.66" y2="-1678.67" gradientTransform="matrix(-167.67, 0.08, 0.08, 167.67, -155395.8, 281622.35)" xlink:href="#linear-gradient"/><linearGradient id="linear-gradient-16" x1="-926.19" y1="-1675.83" x2="-924.89" y2="-1675.83" gradientTransform="matrix(-144.17, 0.07, 0.07, 144.17, -132620.67, 242279.01)" xlink:href="#linear-gradient"/><linearGradient id="linear-gradient-17" x1="-921.24" y1="-1670.56" x2="-919.95" y2="-1670.56" gradientTransform="matrix(-103.73, 0.05, 0.05, 103.73, -94831.74, 173720.99)" xlink:href="#linear-gradient"/><linearGradient id="linear-gradient-18" x1="-918.28" y1="-1667.42" x2="-916.98" y2="-1667.42" gradientTransform="matrix(-90.75, 0.04, 0.04, 90.75, -82628.74, 151891.08)" xlink:href="#linear-gradient"/><linearGradient id="linear-gradient-19" x1="-928.62" y1="-1678.46" x2="-927.33" y2="-1678.46" gradientTransform="matrix(-174, 0.09, 0.09, 174, -160726.57, 292618.71)" xlink:href="#linear-gradient"/><linearGradient id="linear-gradient-20" x1="-933.14" y1="-1706.89" x2="-931.84" y2="-1706.89" gradientTransform="matrix(160.83, 0, 0, -160.83, 150558.79, -274027.33)" xlink:href="#linear-gradient"/><linearGradient id="linear-gradient-21" x1="-933.14" y1="-1707.32" x2="-931.84" y2="-1707.32" gradientTransform="matrix(158, 0, 0, -158, 147837.66, -269164.41)" xlink:href="#linear-gradient"/><linearGradient id="linear-gradient-22" x1="-917.71" y1="-1667.61" x2="-916.41" y2="-1667.61" gradientTransform="matrix(-89.33, 0.04, 0.04, 89.33, -81455.72, 149558.39)" xlink:href="#linear-gradient"/><clipPath id="clip-path"><rect class="cls-23" x="-812" y="704" width="792" height="178.21" transform="translate(-832 1586.21) rotate(-180)"/></clipPath><clipPath id="clip-path-2"><rect class="cls-23" x="-852.48" y="590.02" width="860.23" height="181.89" transform="translate(-844.73 1361.93) rotate(-180)"/></clipPath><clipPath id="clip-path-3"><rect class="cls-23" y="702.91" width="792" height="612.18"/></clipPath><clipPath id="clip-path-4"><rect class="cls-23" x="-76.41" y="647.52" width="544.6" height="480.65"/></clipPath><clipPath id="clip-path-5"><polygon class="cls-23" points="178.44 787.27 83.98 647.52 139.11 935.22 178.44 787.27"/></clipPath><mask id="mask" x="-25.59" y="611.4" width="313.6" height="359.94" maskUnits="userSpaceOnUse"><polygon class="cls-1" points="288.01 698.42 161.73 971.34 -25.59 884.32 100.69 611.4 288.01 698.42"/></mask><linearGradient id="linear-gradient-23" x1="-925.28" y1="-1676.9" x2="-923.86" y2="-1676.9" gradientTransform="matrix(-70.52, 152.11, 152.11, 70.52, 190003.07, 259699.82)" gradientUnits="userSpaceOnUse"><stop offset="0" stop-color="#f68a1f"/><stop offset="0.1" stop-color="#f5a14d"/><stop offset="0.2" stop-color="#f4b679"/><stop offset="0.31" stop-color="#f4c99e"/><stop offset="0.43" stop-color="#f3d8bd"/><stop offset="0.55" stop-color="#f3e3d4"/><stop offset="0.68" stop-color="#f2ece5"/><stop offset="0.82" stop-color="#f2f0ef"/><stop offset="1" stop-color="#f2f2f2"/></linearGradient><clipPath id="clip-path-6"><rect class="cls-23" y="703" width="792" height="178.21" transform="translate(792 1584.21) rotate(-180)"/></clipPath><clipPath id="clip-path-7"><rect class="cls-23" x="-40.48" y="589.02" width="860.23" height="181.89" transform="translate(779.27 1359.93) rotate(-180)"/></clipPath><clipPath id="clip-path-8"><rect class="cls-23" x="-812" y="-144" width="792" height="112"/></clipPath><clipPath id="clip-path-9"><rect class="cls-23" x="-839.75" y="-31.88" width="860.23" height="184.9"/></clipPath><clipPath id="clip-path-10"><rect class="cls-23" x="-839.75" y="-153.03" width="860.23" height="184.9"/></clipPath><linearGradient id="linear-gradient-24" x1="396" y1="86.62" x2="396" y2="1550.99" gradientTransform="translate(702 -90) rotate(90)" gradientUnits="userSpaceOnUse"><stop offset="0" stop-color="#002e42"/><stop offset="0.3" stop-color="#000b12"/><stop offset="0.39" stop-color="#000004"/><stop offset="1"/></linearGradient><clipPath id="clip-path-11"><rect class="cls-23" x="-1.31" y="-0.09" width="794.62" height="612.18"/></clipPath><clipPath id="clip-path-12"><rect class="cls-23" x="356.72" y="311.95" width="460.12" height="380.89"/></clipPath><clipPath id="clip-path-13"><polygon class="cls-23" points="816.85 545.31 792.82 400.79 680.03 548.19 816.85 545.31"/></clipPath><mask id="mask-2" x="623.72" y="348.65" width="249.45" height="251.67" maskUnits="userSpaceOnUse"><rect class="cls-2" x="652.82" y="381.41" width="191.24" height="186.15" transform="translate(2.92 953.56) rotate(-65.1)"/></mask><linearGradient id="linear-gradient-25" x1="-926" y1="-1675.52" x2="-924.7" y2="-1675.52" gradientTransform="matrix(-139.67, 0.07, 0.07, 139.67, -128381.45, 234553.32)" gradientUnits="userSpaceOnUse"><stop offset="0" stop-color="#0aa0d7"/><stop offset="0.03" stop-color="#1aa6d9"/><stop offset="0.13" stop-color="#4cb7df"/><stop offset="0.23" stop-color="#79c7e4"/><stop offset="0.34" stop-color="#9ed4e8"/><stop offset="0.45" stop-color="#bddfec"/><stop offset="0.57" stop-color="#d4e7ef"/><stop offset="0.69" stop-color="#e5edf0"/><stop offset="0.83" stop-color="#eff1f2"/><stop offset="1" stop-color="#f2f2f2"/></linearGradient><clipPath id="clip-path-14"><polygon class="cls-23" points="680.03 548.19 572.53 605.6 603.25 642.69 680.03 548.19"/></clipPath><mask id="mask-3" x="536.42" y="507.22" width="179.73" height="176.45" maskUnits="userSpaceOnUse"><rect class="cls-13" x="560.81" y="526.79" width="130.93" height="137.31" transform="translate(-177.51 912.77) rotate(-65.1)"/></mask><linearGradient id="linear-gradient-26" x1="-918.25" y1="-1667.36" x2="-916.95" y2="-1667.36" gradientTransform="matrix(-91, 0.05, 0.05, 91, -82793.82, 152366.14)" gradientUnits="userSpaceOnUse"><stop offset="0" stop-color="#b99b30"/><stop offset="0.06" stop-color="#c2a84d"/><stop offset="0.18" stop-color="#cebc79"/><stop offset="0.29" stop-color="#d9cc9e"/><stop offset="0.41" stop-color="#e2dabd"/><stop offset="0.54" stop-color="#e9e5d4"/><stop offset="0.67" stop-color="#eeece5"/><stop offset="0.82" stop-color="#f1f1ef"/><stop offset="1" stop-color="#f2f2f2"/></linearGradient><clipPath id="clip-path-15"><polygon class="cls-23" points="700.36 535.82 785.48 562.61 621.74 692.84 700.36 535.82"/></clipPath><mask id="mask-4" x="561.75" y="473.42" width="283.73" height="281.82" maskUnits="userSpaceOnUse"><rect class="cls-16" x="597.97" y="507.02" width="211.29" height="214.63" transform="translate(-149.87 993.85) rotate(-65.1)"/></mask><linearGradient id="linear-gradient-27" x1="-926.19" y1="-1675.83" x2="-924.89" y2="-1675.83" gradientTransform="matrix(-144.17, 0.07, 0.07, 144.17, -132620.67, 242279.01)" gradientUnits="userSpaceOnUse"><stop offset="0" stop-color="#dd5aa1"/><stop offset="0.09" stop-color="#e179b2"/><stop offset="0.22" stop-color="#e69ec5"/><stop offset="0.35" stop-color="#ebbdd6"/><stop offset="0.49" stop-color="#eed4e2"/><stop offset="0.63" stop-color="#f0e5eb"/><stop offset="0.8" stop-color="#f2eff0"/><stop offset="1" stop-color="#f2f2f2"/></linearGradient><clipPath id="clip-path-16"><polygon class="cls-23" points="496.13 427.27 551.52 342.56 674.37 361.55 496.13 427.27"/></clipPath><mask id="mask-5" x="463.76" y="274.63" width="242.98" height="220.57" maskUnits="userSpaceOnUse"><rect class="cls-17" x="509.37" y="286.25" width="151.77" height="197.34" transform="translate(-10.31 753.68) rotate(-65.1)"/></mask><linearGradient id="linear-gradient-28" x1="-921.24" y1="-1670.56" x2="-919.95" y2="-1670.56" gradientTransform="matrix(-103.73, 0.05, 0.05, 103.73, -94831.74, 173720.99)" xlink:href="#linear-gradient-23"/><clipPath id="clip-path-17"><polygon class="cls-23" points="486.2 485.59 543.96 577.73 635.93 490.61 486.2 485.59"/></clipPath><mask id="mask-6" x="451" y="428.53" width="220.13" height="206.26" maskUnits="userSpaceOnUse"><rect class="cls-18" x="487.81" y="444.36" width="146.52" height="174.6" transform="translate(-157.41 816.7) rotate(-65.1)"/></mask><linearGradient id="linear-gradient-29" x1="-918.28" y1="-1667.42" x2="-916.98" y2="-1667.42" gradientTransform="matrix(-90.75, 0.04, 0.04, 90.75, -82628.74, 151891.08)" gradientUnits="userSpaceOnUse"><stop offset="0" stop-color="#e35da2"/><stop offset="0.08" stop-color="#e679b1"/><stop offset="0.21" stop-color="#ea9ec5"/><stop offset="0.34" stop-color="#edbdd5"/><stop offset="0.48" stop-color="#efd4e2"/><stop offset="0.63" stop-color="#f1e5eb"/><stop offset="0.79" stop-color="#f2eff0"/><stop offset="1" stop-color="#f2f2f2"/></linearGradient><clipPath id="clip-path-18"><polygon class="cls-23" points="571.52 604.18 600.58 368.95 635.93 490.61 571.52 604.18"/></clipPath><mask id="mask-7" x="481.63" y="344.4" width="244.17" height="284.33" maskUnits="userSpaceOnUse"><rect class="cls-19" x="483.46" y="407.83" width="240.52" height="157.47" transform="translate(-91.81 829.28) rotate(-65.1)"/></mask><linearGradient id="linear-gradient-30" x1="-928.62" y1="-1678.46" x2="-927.33" y2="-1678.46" gradientTransform="matrix(-174, 0.09, 0.09, 174, -160726.57, 292618.71)" xlink:href="#linear-gradient-25"/><clipPath id="clip-path-19"><polygon class="cls-23" points="686.77 448.4 680.03 548.19 477.95 448.89 686.77 448.4"/></clipPath><mask id="mask-8" x="477.95" y="448.4" width="208.82" height="99.79" maskUnits="userSpaceOnUse"><rect class="cls-20" x="477.95" y="448.4" width="208.82" height="99.79"/></mask><linearGradient id="linear-gradient-31" x1="-933.14" y1="-1706.89" x2="-931.84" y2="-1706.89" gradientTransform="matrix(160.83, 0, 0, -160.83, 150558.79, -274027.33)" xlink:href="#linear-gradient-23"/><clipPath id="clip-path-20"><polygon class="cls-23" points="483.14 534.47 607.13 650.52 402 564.29 483.14 534.47"/></clipPath><mask id="mask-9" x="402" y="534.47" width="205.14" height="116.05" maskUnits="userSpaceOnUse"><rect class="cls-21" x="402" y="534.47" width="205.14" height="116.05"/></mask><linearGradient id="linear-gradient-32" x1="-933.14" y1="-1707.32" x2="-931.84" y2="-1707.32" gradientTransform="matrix(158, 0, 0, -158, 147837.66, -269164.41)" xlink:href="#linear-gradient-23"/><clipPath id="clip-path-21"><polygon class="cls-23" points="356.72 476.77 414.86 485.11 415.94 613.29 356.72 476.77"/></clipPath><mask id="mask-10" x="304.56" y="454.2" width="163.55" height="181.66" maskUnits="userSpaceOnUse"><rect class="cls-22" x="311.95" y="489.43" width="148.77" height="111.2" transform="translate(-270.7 665.95) rotate(-65.1)"/></mask><linearGradient id="linear-gradient-33" x1="-917.71" y1="-1667.61" x2="-916.41" y2="-1667.61" gradientTransform="matrix(-89.33, 0.04, 0.04, 89.33, -81455.7, 149558.38)" xlink:href="#linear-gradient-27"/><clipPath id="clip-path-22"><polygon class="cls-23" points="686.61 449.76 674.37 361.55 745.57 387.49 686.61 449.76"/></clipPath><mask id="mask-11" x="640.67" y="334.42" width="138.61" height="142.48" maskUnits="userSpaceOnUse"><rect class="cls-3" x="654.99" y="354.79" width="109.96" height="101.72" transform="translate(43.09 878.81) rotate(-65.1)"/></mask><linearGradient id="linear-gradient-34" x1="-909.21" y1="-1656.85" x2="-907.92" y2="-1656.85" gradientTransform="matrix(-62.67, 0.03, 0.03, 62.67, -56184.52, 104262.88)" xlink:href="#linear-gradient-25"/><clipPath id="clip-path-23"><polygon class="cls-23" points="808.78 311.95 602.13 369.19 634.74 489.57 808.78 311.95"/></clipPath><mask id="mask-12" x="534.26" y="233.19" width="342.39" height="335.14" maskUnits="userSpaceOnUse"><rect class="cls-4" x="581.45" y="269.65" width="248.01" height="262.23" transform="translate(44.91 871.89) rotate(-65.1)"/></mask><linearGradient id="linear-gradient-35" x1="-929.21" y1="-1678.77" x2="-927.91" y2="-1678.77" gradientTransform="matrix(-180.67, 0.09, 0.09, 180.67, -166896.71, 303781.49)" xlink:href="#linear-gradient-25"/><clipPath id="clip-path-24"><polygon class="cls-23" points="468.43 450.61 417.36 542.25 588.74 443.7 468.43 450.61"/></clipPath><mask id="mask-13" x="379.71" y="378.39" width="246.69" height="229.17" maskUnits="userSpaceOnUse"><rect class="cls-5" x="422.33" y="394.5" width="161.43" height="196.94" transform="translate(-155.91 741.68) rotate(-65.1)"/></mask><linearGradient id="linear-gradient-36" x1="-924.11" y1="-1673.91" x2="-922.81" y2="-1673.91" gradientTransform="matrix(-124.47, 0.06, 0.06, 124.47, -114337.84, 208903.83)" xlink:href="#linear-gradient-25"/><clipPath id="clip-path-25"><rect class="cls-23" x="-77.97" y="-55.48" width="546.4" height="480.65"/></clipPath><clipPath id="clip-path-26"><polygon class="cls-23" points="223.62 211.87 230.91 297.31 138.93 269.57 223.62 211.87"/></clipPath><mask id="mask-14" x="106.28" y="176.81" width="157.28" height="155.56" maskUnits="userSpaceOnUse"><rect class="cls-6" x="126.83" y="194.88" width="116.19" height="119.41" transform="translate(-123.86 315.12) rotate(-65.1)"/></mask><linearGradient id="linear-gradient-37" x1="-910.22" y1="-1658.31" x2="-908.8" y2="-1658.31" gradientTransform="matrix(-62, 0.03, 0.03, 62, -56142.54, 103097.49)" gradientUnits="userSpaceOnUse"><stop offset="0" stop-color="#e15ca2"/><stop offset="0.09" stop-color="#e479b2"/><stop offset="0.21" stop-color="#e89ec5"/><stop offset="0.35" stop-color="#ecbdd6"/><stop offset="0.48" stop-color="#efd4e2"/><stop offset="0.63" stop-color="#f1e5eb"/><stop offset="0.79" stop-color="#f2eff0"/><stop offset="1" stop-color="#f2f2f2"/></linearGradient><clipPath id="clip-path-27"><polygon class="cls-23" points="311.2 73.75 229.92 153.87 432.45 194.65 311.2 73.75"/></clipPath><mask id="mask-15" x="183.73" y="-3.44" width="294.92" height="275.27" maskUnits="userSpaceOnUse"><rect class="cls-7" x="233.78" y="16.89" width="194.81" height="234.61" transform="translate(70.01 378.09) rotate(-65.1)"/></mask><linearGradient id="linear-gradient-38" x1="-916.06" y1="-1663.72" x2="-914.64" y2="-1663.72" gradientTransform="matrix(-75.33, 0.04, 0.04, 75.33, -68570.13, 125502.19)" xlink:href="#linear-gradient-27"/><clipPath id="clip-path-28"><polygon class="cls-23" points="-77.97 425.16 219.96 158.77 -47.26 224.7 -77.97 425.16"/></clipPath><mask id="mask-16" x="-179.76" y="45.22" width="501.51" height="493.48" maskUnits="userSpaceOnUse"><rect class="cls-8" x="-112.47" y="100.76" width="366.92" height="382.4" transform="translate(-223.72 233.42) rotate(-65.1)"/></mask><linearGradient id="linear-gradient-39" x1="-932.64" y1="-1682.76" x2="-931.22" y2="-1682.76" gradientTransform="matrix(-258.67, 0.13, 0.13, 258.67, -240772.44, 435684.51)" xlink:href="#linear-gradient-23"/><clipPath id="clip-path-29"><polygon class="cls-23" points="324.94 153.69 358.41 240.05 192.05 207.31 324.94 153.69"/></clipPath><mask id="mask-17" x="159.05" y="90.29" width="232.36" height="213.17" maskUnits="userSpaceOnUse"><rect class="cls-9" x="201.09" y="103.24" width="148.27" height="187.26" transform="translate(-19.23 363.62) rotate(-65.1)"/></mask><linearGradient id="linear-gradient-40" x1="-915.26" y1="-1663.16" x2="-913.84" y2="-1663.16" gradientTransform="matrix(-73.67, 0.04, 0.04, 73.67, -67027.99, 122749.72)" xlink:href="#linear-gradient-25"/><clipPath id="clip-path-30"><polygon class="cls-23" points="317.48 152.85 468.43 98.21 254.64 241 317.48 152.85"/></clipPath><mask id="mask-18" x="200.08" y="16.74" width="322.9" height="305.74" maskUnits="userSpaceOnUse"><rect class="cls-10" x="251.84" y="42.59" width="219.4" height="254.03" transform="translate(55.47 426.11) rotate(-65.1)"/></mask><linearGradient id="linear-gradient-41" x1="-928.24" y1="-1677.29" x2="-926.82" y2="-1677.29" gradientTransform="matrix(-154.67, 0.08, 0.08, 154.67, -142970.04, 259665.52)" xlink:href="#linear-gradient-23"/><clipPath id="clip-path-31"><polygon class="cls-23" points="165.49 31.56 254.12 139.72 319.43 49.6 165.49 31.56"/></clipPath><mask id="mask-19" x="124.16" y="-27.11" width="236.6" height="225.5" maskUnits="userSpaceOnUse"><rect class="cls-11" x="161.04" y="-6.95" width="162.84" height="185.17" transform="translate(62.69 269.5) rotate(-65.1)"/></mask><linearGradient id="linear-gradient-42" x1="-916.67" y1="-1664.36" x2="-915.25" y2="-1664.36" gradientTransform="matrix(-77, 0.04, 0.04, 77, -70212.34, 128276.44)" xlink:href="#linear-gradient-25"/><clipPath id="clip-path-32"><polygon class="cls-23" points="51.8 278.08 58.53 111.86 112.49 223.21 51.8 278.08"/></clipPath><mask id="mask-20" x="-11.72" y="88.73" width="187.72" height="212.49" maskUnits="userSpaceOnUse"><rect class="cls-12" x="-6.03" y="132.45" width="176.34" height="125.04" transform="translate(-129.29 187.38) rotate(-65.1)"/></mask><linearGradient id="linear-gradient-43" x1="-922.86" y1="-1672.26" x2="-921.44" y2="-1672.26" gradientTransform="matrix(-108.33, 0.05, 0.05, 108.33, -99738.99, 181405.66)" xlink:href="#linear-gradient-25"/><clipPath id="clip-path-33"><polygon class="cls-23" points="24.36 166.53 85.17 74.32 162.56 141.94 24.36 166.53"/></clipPath><mask id="mask-21" x="-10.87" y="21.65" width="208.66" height="197.55" maskUnits="userSpaceOnUse"><rect class="cls-14" x="22.59" y="38.33" width="141.74" height="164.18" transform="translate(-55.12 154.49) rotate(-65.1)"/></mask><linearGradient id="linear-gradient-44" x1="-916.2" y1="-1665.13" x2="-914.78" y2="-1665.13" gradientTransform="matrix(-77, 0.04, 0.04, 77, -70352.34, 128370.37)" xlink:href="#linear-gradient-25"/><clipPath id="clip-path-34"><polygon class="cls-23" points="177.72 84.27 82.95 -55.48 138.26 232.22 177.72 84.27"/></clipPath><mask id="mask-22" x="-26.98" y="-91.6" width="314.63" height="359.94" maskUnits="userSpaceOnUse"><rect class="cls-15" x="-20.11" y="-15.18" width="300.9" height="207.1" transform="translate(-4.7 169.38) rotate(-65.1)"/></mask><linearGradient id="linear-gradient-45" x1="-929.08" y1="-1678.67" x2="-927.66" y2="-1678.67" gradientTransform="matrix(-167.67, 0.08, 0.08, 167.67, -155395.8, 281622.35)" xlink:href="#linear-gradient-23"/><clipPath id="clip-path-35"><rect class="cls-23" width="792" height="178.21" transform="translate(792 178.21) rotate(-180)"/></clipPath><clipPath id="clip-path-36"><rect class="cls-23" x="-40.48" y="-113.98" width="860.23" height="181.89" transform="translate(779.27 -46.07) rotate(-180)"/></clipPath><clipPath id="clip-path-37"><rect class="cls-23" x="-40.48" y="5.21" width="860.23" height="181.89" transform="translate(779.27 192.31) rotate(-180)"/></clipPath><clipPath id="clip-path-38"><rect class="cls-23" y="500.07" width="792" height="111.93"/></clipPath><clipPath id="clip-path-39"><rect class="cls-23" x="-27.75" y="491.04" width="860.23" height="184.78"/></clipPath></defs><title>backgroundArtboard 13</title><g class="cls-24"><g class="cls-25"><polygon class="cls-26" points="-875.4 738.09 -793.56 752.9 -575.7 697.32 -365.99 672.48 33.39 703.95 33.43 561.51 -875.35 559.49 -875.4 738.09"/><polygon class="cls-26" points="33.4 673.44 -200.6 741.24 -600.68 672.04 -875.4 738.09 -875.35 559.49 33.43 561.51 33.4 673.44"/><polygon class="cls-27" points="-875.37 672.98 -793.52 682.42 -510.35 644.62 -225.7 642.13 33.41 680.68 33.41 560.98 -875.37 559.49 -875.37 672.98"/><polygon class="cls-27" points="33.42 620.47 -200.56 656.53 -574.73 597.09 -875.36 654.66 -875.37 559.49 33.41 560.83 33.42 620.47"/><polygon class="cls-26" points="-875.4 710.97 -605.01 753.32 -234.22 699.66 33.38 732.94 33.43 561.51 -875.35 559.5 -875.4 710.97"/></g></g><g class="cls-28"><g class="cls-29"><g class="cls-30"><g class="cls-31"><g class="cls-32"><polygon class="cls-33" points="288.01 698.42 161.73 971.34 -25.59 884.32 100.69 611.4 288.01 698.42"/></g></g></g></g></g><g class="cls-34"><g class="cls-35"><polygon class="cls-26" points="-63.4 737.09 18.44 751.9 236.3 696.32 446.01 671.48 845.39 702.95 845.43 560.51 -63.35 558.49 -63.4 737.09"/><polygon class="cls-26" points="845.4 672.44 611.4 740.24 211.32 671.04 -63.4 737.09 -63.35 558.49 845.43 560.51 845.4 672.44"/><polygon class="cls-27" points="-63.37 671.98 18.48 681.42 301.65 643.62 586.3 641.13 845.41 679.68 845.41 559.98 -63.37 558.49 -63.37 671.98"/><polygon class="cls-27" points="845.42 619.47 611.44 655.53 237.27 596.09 -63.36 653.66 -63.37 558.49 845.41 559.83 845.42 619.47"/><polygon class="cls-26" points="-63.4 709.97 206.99 752.32 577.77 698.66 845.38 731.94 845.43 560.51 -63.35 558.5 -63.4 709.97"/></g></g><g class="cls-36"><g class="cls-37"><polygon class="cls-26" points="43.4 2.51 -38.44 -12.56 -256.3 43.95 -466.01 69.2 -865.39 37.21 -865.43 182 43.35 184.05 43.4 2.51"/><polygon class="cls-26" points="-865.4 68.22 -631.4 -0.7 -231.32 69.65 43.4 2.51 43.35 184.05 -865.43 182 -865.4 68.22"/><polygon class="cls-27" points="43.37 68.69 -38.48 59.1 -321.65 97.52 -606.3 100.06 -865.41 60.87 -865.41 182.54 43.37 184.05 43.37 68.69"/><polygon class="cls-27" points="-865.42 122.07 -631.44 85.41 -257.27 145.83 43.36 87.31 43.37 184.05 -865.41 182.7 -865.42 122.07"/><polygon class="cls-26" points="43.4 30.07 -226.99 -12.98 -597.77 41.57 -865.38 7.74 -865.43 182 43.35 184.05 43.4 30.07"/></g><g class="cls-38"><polygon class="cls-26" points="43.4 -118.65 -38.44 -133.71 -255.96 -94.53 -606.98 -36.92 -865.39 -83.95 -865.43 60.85 43.35 62.9 43.4 -118.65"/><polygon class="cls-26" points="-865.4 -52.94 -631.4 -121.86 -222.04 -31.88 43.4 -118.65 43.35 62.9 -865.43 60.85 -865.4 -52.94"/><polygon class="cls-26" points="43.37 -52.47 -38.48 -62.06 -224.65 -78.34 -467.5 -5.45 -858.7 -49.56 -865.41 61.39 43.37 62.9 43.37 -52.47"/><polygon class="cls-26" points="-865.42 0.91 -624.2 -84.73 -284.66 14.49 43.36 -33.84 43.37 62.9 -865.41 61.54 -865.42 0.91"/><polygon class="cls-26" points="43.4 -91.09 -226.99 -134.14 -606.28 -69.06 -865.38 -113.42 -865.43 60.84 43.35 62.89 43.4 -91.09"/></g></g><rect class="cls-39" x="90" y="-90.98" width="612" height="793.97" transform="translate(90 702) rotate(-90)"/><g class="cls-28"><g class="cls-40"><g class="cls-41"><g class="cls-42"><g class="cls-43"><rect class="cls-44" x="652.82" y="381.41" width="191.24" height="186.15" transform="translate(2.92 953.56) rotate(-65.1)"/></g></g><g class="cls-45"><g class="cls-46"><rect class="cls-47" x="560.81" y="526.79" width="130.93" height="137.31" transform="translate(-177.51 912.77) rotate(-65.1)"/></g></g><g class="cls-48"><g class="cls-49"><rect class="cls-50" x="597.97" y="507.02" width="211.29" height="214.63" transform="translate(-149.87 993.85) rotate(-65.1)"/></g></g><g class="cls-51"><g class="cls-52"><rect class="cls-53" x="509.37" y="286.25" width="151.77" height="197.34" transform="translate(-10.31 753.68) rotate(-65.1)"/></g></g><g class="cls-54"><g class="cls-55"><rect class="cls-56" x="487.81" y="444.36" width="146.52" height="174.6" transform="translate(-157.41 816.7) rotate(-65.1)"/></g></g><g class="cls-57"><g class="cls-58"><rect class="cls-59" x="483.46" y="407.83" width="240.52" height="157.47" transform="translate(-91.81 829.28) rotate(-65.1)"/></g></g><g class="cls-60"><g class="cls-61"><rect class="cls-62" x="477.95" y="448.4" width="208.82" height="99.79"/></g></g><g class="cls-63"><g class="cls-64"><rect class="cls-65" x="402" y="534.47" width="205.14" height="116.05"/></g></g><g class="cls-66"><g class="cls-67"><rect class="cls-68" x="311.95" y="489.43" width="148.77" height="111.2" transform="translate(-270.7 665.95) rotate(-65.1)"/></g></g><g class="cls-69"><g class="cls-70"><rect class="cls-71" x="654.99" y="354.79" width="109.96" height="101.72" transform="translate(43.09 878.81) rotate(-65.1)"/></g></g><g class="cls-72"><g class="cls-73"><rect class="cls-74" x="581.45" y="269.65" width="248.01" height="262.23" transform="translate(44.91 871.89) rotate(-65.1)"/></g></g><g class="cls-75"><g class="cls-76"><rect class="cls-77" x="422.33" y="394.5" width="161.43" height="196.94" transform="translate(-155.91 741.68) rotate(-65.1)"/></g></g></g><g class="cls-78"><g class="cls-79"><g class="cls-80"><rect class="cls-81" x="126.83" y="194.88" width="116.19" height="119.41" transform="translate(-123.86 315.12) rotate(-65.1)"/></g></g><g class="cls-82"><g class="cls-83"><rect class="cls-84" x="233.78" y="16.89" width="194.81" height="234.61" transform="translate(70.01 378.09) rotate(-65.1)"/></g></g><g class="cls-85"><g class="cls-86"><rect class="cls-87" x="-112.47" y="100.76" width="366.92" height="382.4" transform="translate(-223.72 233.42) rotate(-65.1)"/></g></g><g class="cls-88"><g class="cls-89"><rect class="cls-90" x="201.09" y="103.24" width="148.27" height="187.26" transform="translate(-19.23 363.62) rotate(-65.1)"/></g></g><g class="cls-91"><g class="cls-92"><rect class="cls-93" x="251.84" y="42.59" width="219.4" height="254.03" transform="translate(55.47 426.11) rotate(-65.1)"/></g></g><g class="cls-94"><g class="cls-95"><rect class="cls-96" x="161.04" y="-6.95" width="162.84" height="185.17" transform="translate(62.69 269.5) rotate(-65.1)"/></g></g><g class="cls-97"><g class="cls-98"><rect class="cls-99" x="-6.03" y="132.45" width="176.34" height="125.04" transform="translate(-129.29 187.38) rotate(-65.1)"/></g></g><g class="cls-100"><g class="cls-101"><rect class="cls-102" x="22.59" y="38.33" width="141.74" height="164.18" transform="translate(-55.12 154.49) rotate(-65.1)"/></g></g><g class="cls-103"><g class="cls-104"><rect class="cls-105" x="-20.11" y="-15.18" width="300.9" height="207.1" transform="translate(-4.7 169.38) rotate(-65.1)"/></g></g></g></g></g><g class="cls-106"><g class="cls-107"><polygon class="cls-26" points="-63.4 34.09 18.44 48.9 236.3 -6.68 446.01 -31.52 845.39 -0.05 845.43 -142.49 -63.35 -144.51 -63.4 34.09"/><polygon class="cls-26" points="845.4 -30.56 611.4 37.24 211.32 -31.96 -63.4 34.09 -63.35 -144.51 845.43 -142.49 845.4 -30.56"/><polygon class="cls-26" points="-63.4 6.97 206.99 49.32 577.77 -4.34 845.38 28.94 845.43 -142.49 -63.35 -144.5 -63.4 6.97"/></g><g class="cls-108"><polygon class="cls-26" points="-63.4 153.27 18.44 168.09 235.96 129.54 586.98 72.87 845.39 119.14 845.43 -23.3 -63.35 -25.32 -63.4 153.27"/><polygon class="cls-26" points="845.4 88.63 611.4 156.43 202.04 67.91 -63.4 153.27 -63.35 -25.32 845.43 -23.3 845.4 88.63"/><polygon class="cls-26" points="-63.37 88.17 18.48 97.61 204.65 113.61 447.5 41.91 838.7 85.31 845.41 -23.84 -63.37 -25.32 -63.37 88.17"/><polygon class="cls-26" points="845.42 35.66 604.2 119.9 264.66 22.3 -63.36 69.84 -63.37 -25.32 845.41 -23.98 845.42 35.66"/><polygon class="cls-26" points="-63.4 126.16 206.99 168.51 586.28 104.48 845.38 148.12 845.43 -23.3 -63.35 -25.32 -63.4 126.16"/></g></g><g class="cls-109"><g class="cls-110"><polygon class="cls-26" points="855.4 525.4 773.56 510.35 556.04 549.51 205.02 607.08 -53.39 560.09 -53.43 704.79 855.35 706.84 855.4 525.4"/><polygon class="cls-26" points="-53.4 591.08 180.6 522.2 589.96 612.13 855.4 525.4 855.35 706.84 -53.43 704.79 -53.4 591.08"/><polygon class="cls-26" points="855.37 591.54 773.52 581.96 587.35 565.69 344.5 638.53 -46.7 594.45 -53.41 705.33 855.37 706.84 855.37 591.54"/><polygon class="cls-26" points="-53.42 644.89 187.8 559.3 527.34 658.46 855.36 610.16 855.37 706.84 -53.41 705.48 -53.42 644.89"/><polygon class="cls-26" points="855.4 552.95 585.01 509.93 205.72 574.97 -53.38 530.64 -53.43 704.79 855.35 706.84 855.4 552.95"/></g></g></svg>